<?xml version="1.0" encoding="UTF-8" standalone="no"?>
<!-- Created with Inkscape (http://www.inkscape.org/) -->

<svg
   width="210mm"
   height="297mm"
   viewBox="0 0 210 297"
   version="1.1"
   id="svg8130"
   inkscape:version="1.2.2 (b0a8486541, 2022-12-01)"
   sodipodi:docname="reto45_inkscape.svg"
   xmlns:inkscape="http://www.inkscape.org/namespaces/inkscape"
   xmlns:sodipodi="http://sodipodi.sourceforge.net/DTD/sodipodi-0.dtd"
   xmlns="http://www.w3.org/2000/svg"
   xmlns:svg="http://www.w3.org/2000/svg">
  <sodipodi:namedview
     id="namedview8132"
     pagecolor="#ffffff"
     bordercolor="#000000"
     borderopacity="0.25"
     inkscape:showpageshadow="2"
     inkscape:pageopacity="0.0"
     inkscape:pagecheckerboard="0"
     inkscape:deskcolor="#d1d1d1"
     inkscape:document-units="mm"
     showgrid="false"
     inkscape:zoom="0.5946522"
     inkscape:cx="271.58732"
     inkscape:cy="474.22678"
     inkscape:window-width="1870"
     inkscape:window-height="1011"
     inkscape:window-x="0"
     inkscape:window-y="0"
     inkscape:window-maximized="1"
     inkscape:current-layer="layer1" />
  <defs
     id="defs8127" />
  <g
     inkscape:label="Capa 1"
     inkscape:groupmode="layer"
     id="layer1">
    <path
       style="fill:#aaaaff;stroke:#000000;stroke-width:0.499999;stroke-linecap:round;stroke-linejoin:round"
       d="m 93.723745,89.269151 -29.21122,14.151109 19.994401,28.87404 -16.925022,13.20041 33.931736,18.15903 33.87437,-0.87597 1.06368,-24.99474 -12.73635,-17.11794 18.10689,-5.75291 -0.67609,-32.449189 -23.98494,7.384928 -16.46097,-13.195191 z"
       id="path8497" />
    <path
       style="fill:none;stroke:#2c2ca0;stroke-width:2;stroke-linecap:round;stroke-linejoin:round;stroke-dasharray:none"
       d="m 99.325446,66.987494 -10.089318,20.084776 -34.451406,14.30058 20.331581,29.66485 -19.03848,15.48767 43.941097,23.25496 41.43311,-0.47797 1.28963,-31.6184 -10.06499,-13.0996 17.06928,-4.99512 -1.24791,-44.669336 -31.95124,7.939361 z"
       id="path8553"
       sodipodi:nodetypes="ccccccccccccc" />
    <path
       style="fill:#2c2ca0;stroke:#2c2ca0;stroke-width:2;stroke-linecap:round;stroke-linejoin:round;stroke-dasharray:none"
       d="M 47.311156,97.736878 84.751988,82.3309 95.055083,58.804807 Z"
       id="path9089" />
    <path
       style="fill:#2c2ca0;stroke:#2c2ca0;stroke-width:2;stroke-linecap:round;stroke-linejoin:round;stroke-dasharray:none"
       d="m 46.158837,101.90817 19.088881,26.83358 -15.369479,14.13721 z"
       id="path9091" />
    <path
       style="fill:#2c2ca0;stroke:#2c2ca0;stroke-width:2;stroke-linecap:round;stroke-linejoin:round;stroke-dasharray:none"
       d="m 51.32081,150.36817 46.735868,23.83025 43.506592,0.003 0.80123,13.83479 -44.58591,-2.48366 -47.799545,-33.06619 z"
       id="path9093" />
    <path
       style="fill:#2c2ca0;stroke:#2c2ca0;stroke-width:2;stroke-linecap:round;stroke-linejoin:round;stroke-dasharray:none"
       d="m 144.5805,128.37503 9.51229,-5.5009 -1.03761,-49.86607 10.37957,0.627433 6.25867,115.098147 -18.92376,0.0348 -1.2062,-18.60049 2.66441,-31.68793 z"
       id="path9095" />
    <path
       style="fill:#2c2ca0;stroke:#2c2ca0;stroke-width:2;stroke-linecap:round;stroke-linejoin:round;stroke-dasharray:none"
       d="m 163.82059,56.322888 0.12948,10.549896 -15.25911,0.736928 -29.90122,9.557474 -16.37754,-13.775695 -0.54053,-5.401823 z"
       id="path9097"
       sodipodi:nodetypes="ccccccc" />
    <path
       style="fill:none;stroke:#8787de;stroke-width:2;stroke-linecap:round;stroke-linejoin:round;stroke-dasharray:4, 2, 1, 2;stroke-dashoffset:0"
       d="M 169.05035,52.198521 65.630085,54.543138 27.111669,123.1053 60.515035,189.73823 174.12542,202.35639 Z"
       id="path9099"
       sodipodi:nodetypes="cccccc" />
    <path
       style="fill:#000055;stroke:#d5d5ff;stroke-width:2;stroke-linecap:round;stroke-linejoin:round;stroke-dasharray:none;stroke-dashoffset:0"
       d="M 168.701,192.47042 98.214838,188.77188 48.157582,156.18712 43.635204,98.675419 31.1248,124.4853 61.693427,186.74011 171.31154,198.90638 Z"
       id="path9209" />
    <path
       style="fill:#000055;stroke:#d5d5ff;stroke-width:2;stroke-linecap:round;stroke-linejoin:round;stroke-dasharray:none;stroke-dashoffset:0"
       d="M 67.090038,57.115434 H 92.06218 L 47.311156,94.318155 Z"
       id="path9589" />
    <path
       style="fill:#000055;stroke:#d5d5ff;stroke-width:2;stroke-linecap:round;stroke-linejoin:round;stroke-dasharray:none;stroke-dashoffset:0"
       d="m 61.53179,196.46617 59.43571,12.21842 -26.800555,5.51132 9.694785,20.56795 -51.666686,12.99184 6.960846,-25.68647 -18.5049,-10.22141 z"
       id="path9591" />
    <path
       style="fill:#000055;stroke:#d5d5ff;stroke-width:2;stroke-linecap:round;stroke-linejoin:round;stroke-dasharray:none;stroke-dashoffset:0"
       d="m 104.64211,218.57924 34.4149,-9.6774 13.42461,8.11491 14.33535,-7.40753 4.44938,23.18718 -31.54541,-4.09482 2.01092,17.72278 -33.13572,5.91455 7.67692,-21.90624 z"
       id="path9593" />
    <path
       style="fill:#000055;stroke:#d5d5ff;stroke-width:2;stroke-linecap:round;stroke-linejoin:round;stroke-dasharray:none;stroke-dashoffset:0"
       d="m 57.329212,252.34238 44.231348,-11.007 -5.709454,21.58819 58.677924,-9.72433 -5.12895,-17.07797 27.32545,3.67595 1.62333,25.16679 -61.89157,6.80096 13.28905,14.84807 -49.916477,-0.19465 7.897648,-17.21181 -33.917829,3.83238 15.724039,-12.70333 z"
       id="path9595" />
    <path
       style="fill:#000055;stroke:#d5d5ff;stroke-width:2;stroke-linecap:round;stroke-linejoin:round;stroke-dasharray:none;stroke-dashoffset:0"
       d="m 54.098197,192.60599 -21.967073,18.59702 19.055858,12.58513 -5.977115,25.3493 15.624968,11.19123 -16.765121,12.095 -13.259499,-10.89401 5.015979,-20.05871 -17.938298,-8.22613 8.104475,-61.11467 z"
       id="path9597" />
    <path
       style="fill:#000055;stroke:#d5d5ff;stroke-width:2;stroke-linecap:round;stroke-linejoin:round;stroke-dasharray:none;stroke-dashoffset:0"
       d="m 11.215565,236.13344 13.508038,6.48983 -5.168928,24.08054 14.672523,11.38414 11.199924,-0.0799 -4.065273,6.33865 4.067011,8.77707 -39.6898557,-1.851 z"
       id="path9599" />
    <path
       style="fill:#000055;stroke:#d5d5ff;stroke-width:2;stroke-linecap:round;stroke-linejoin:round;stroke-dasharray:none;stroke-dashoffset:0"
       d="m 53.062327,279.42624 -6.131801,6.69145 2.673104,5.6747 17.267415,-0.89334 9.97808,-11.91601 z"
       id="path9601" />
    <path
       style="fill:#000055;stroke:#d5d5ff;stroke-width:2;stroke-linecap:round;stroke-linejoin:round;stroke-dasharray:none;stroke-dashoffset:0"
       d="m 128.22555,274.56669 12.73983,14.4848 -56.682662,-0.1651 -11.895137,5.15329 101.082599,-1.1471 7.9046,-7.30673 -2.36199,-6.2778 -32.32057,-3.1302 44.10447,-8.19658 z"
       id="path9603" />
    <path
       style="fill:#000055;stroke:#d5d5ff;stroke-width:2;stroke-linecap:round;stroke-linejoin:round;stroke-dasharray:none;stroke-dashoffset:0"
       d="m 180.46927,293.27321 9.35586,-8.25569 -8.16531,-6.95391 -11.01916,-2.3672 25.01559,-4.70834 2.92338,-3.47956 -16.48008,-4.27731 -1.38696,-20.75566 13.53063,9.38889 10.32222,-11.23643 0.63786,38.11694 h -9.16642 l 2.94424,10.90967 5.9493,2.33072 z"
       id="path9605" />
    <path
       style="fill:#000055;stroke:#d5d5ff;stroke-width:2;stroke-linecap:round;stroke-linejoin:round;stroke-dasharray:none;stroke-dashoffset:0"
       d="m 172.84449,212.28754 2.78955,21.77589 17.70888,10.80713 13.40028,-9.19075 -9.25332,-2.29248 7.35364,-31.1161 -18.80732,20.78868 0.96809,-56.561 z"
       id="path9607" />
    <path
       style="fill:#000055;stroke:#d5d5ff;stroke-width:2;stroke-linecap:round;stroke-linejoin:round;stroke-dasharray:none;stroke-dashoffset:0"
       d="m 190.44908,209.94814 1.59205,-55.49558 -12.02202,14.44311 -1.86491,-35.73756 9.34369,14.5161 12.44089,-16.70255 -7.72733,-10.22836 12.99532,-7.03385 -0.38932,82.07194 z"
       id="path9609" />
    <path
       style="fill:#000055;stroke:#d5d5ff;stroke-width:2;stroke-linecap:round;stroke-linejoin:round;stroke-dasharray:none;stroke-dashoffset:0"
       d="m 207.87466,231.57108 -6.57152,-0.99589 5.97364,-19.80843 z"
       id="path9611" />
    <path
       style="fill:#000055;stroke:#d5d5ff;stroke-width:2;stroke-linecap:round;stroke-linejoin:round;stroke-dasharray:none;stroke-dashoffset:0"
       d="m 200.63298,281.7078 1.08365,6.32433 6.18023,2.58056 -0.1441,-9.62628 z"
       id="path9613" />
    <path
       style="fill:#000055;stroke:#d5d5ff;stroke-width:2;stroke-linecap:round;stroke-linejoin:round;stroke-dasharray:none;stroke-dashoffset:0"
       d="m 177.68667,128.27943 9.00825,10.71328 6.84092,-9.17163 -9.05518,-12.49998 18.1121,-9.02564 0.88988,-17.651518 -17.72974,5.420942 -8.53377,-14.941921 z"
       id="path9615" />
    <path
       style="fill:#000055;stroke:#d5d5ff;stroke-width:2;stroke-linecap:round;stroke-linejoin:round;stroke-dasharray:none;stroke-dashoffset:0"
       d="m 176.30145,73.552068 11.33027,14.457005 15.76749,-4.993386 0.52837,-21.789792 -16.45576,-6.269106 z"
       id="path9617" />
    <path
       style="fill:#000055;stroke:#d5d5ff;stroke-width:2;stroke-linecap:round;stroke-linejoin:round;stroke-dasharray:none;stroke-dashoffset:0"
       d="M 175.02747,47.328536 V 66.062857 L 185.46265,48.068941 204.92,56.31072 203.58518,30.29228 183.17887,44.431225 174.45739,26.291314 Z"
       id="path9619" />
    <path
       style="fill:#000055;stroke:#d5d5ff;stroke-width:2;stroke-linecap:round;stroke-linejoin:round;stroke-dasharray:none;stroke-dashoffset:0"
       d="M 69.020999,46.690676 88.700813,37.046299 107.77058,52.351468 120.5469,44.05581 h 37.8962 l 5.36185,-16.893738 14.02423,-6.668856 8.81707,14.229324 L 199.98397,24.059672 201.32052,9.2046538 168.23869,6.0483752 151.86115,31.079612 133.13378,7.4283781 73.131462,20.691353 43.814222,56.561 Z"
       id="path9621" />
    <path
       style="fill:#000055;stroke:#d5d5ff;stroke-width:2;stroke-linecap:round;stroke-linejoin:round;stroke-dasharray:none;stroke-dashoffset:0"
       d="m 142.70168,6.849611 c 0,0 7.46488,16.420991 9.70695,13.523681 2.24207,-2.897311 8.43644,-14.5525998 8.43644,-14.5525998 z"
       id="path9623" />
    <path
       style="fill:#000055;stroke:#d5d5ff;stroke-width:2;stroke-linecap:round;stroke-linejoin:round;stroke-dasharray:none;stroke-dashoffset:0"
       d="m 167.76594,32.927147 -5.8346,12.131511 -38.23859,2.165596 h 46.00241 z"
       id="path9625" />
    <path
       style="fill:#000055;stroke:#d5d5ff;stroke-width:2;stroke-linecap:round;stroke-linejoin:round;stroke-dasharray:none;stroke-dashoffset:0"
       d="m 88.593056,41.921498 -15.548496,6.569787 22.328584,0.51272 z"
       id="path9627" />
    <path
       style="fill:#000055;stroke:#d5d5ff;stroke-width:2;stroke-linecap:round;stroke-linejoin:round;stroke-dasharray:none;stroke-dashoffset:0"
       d="m 126.86293,3.8097811 c -3.68812,0 -69.992561,15.1261519 -69.992561,15.1261519 L 56.331577,4.8161056 Z"
       id="path9629" />
    <path
       style="fill:#000055;stroke:#d5d5ff;stroke-width:2;stroke-linecap:round;stroke-linejoin:round;stroke-dasharray:none;stroke-dashoffset:0"
       d="M 42.644522,19.52339 65.352,23.110703 39.121516,53.877466 45.341957,33.20697 Z"
       id="path9631" />
    <path
       style="fill:#000055;stroke:#d5d5ff;stroke-width:2;stroke-linecap:round;stroke-linejoin:round;stroke-dasharray:none;stroke-dashoffset:0"
       d="M 53.568097,5.6955533 7.6195623,4.7431081 5.189784,20.4011 15.197412,12.110655 24.6732,23.597354 30.577319,10.676773 35.191811,22.495437 42.091826,12.421764 53.164872,17.25525 Z"
       id="path9633" />
    <path
       style="fill:#000055;stroke:#d5d5ff;stroke-width:2;stroke-linecap:round;stroke-linejoin:round;stroke-dasharray:none;stroke-dashoffset:0"
       d="M 31.561047,55.467773 3.7246173,56.277697 3.851494,25.099019 13.023125,19.579008 24.7966,30.396561 l 5.266258,-9.541833 1.8093,8.134022 8.295658,-6.01709 1.682422,9.159464 z"
       id="path9635" />
    <path
       style="fill:#000055;stroke:#d5d5ff;stroke-width:2;stroke-linecap:round;stroke-linejoin:round;stroke-dasharray:none;stroke-dashoffset:0"
       d="M 3.309226,271.19836 2.6209626,142.82856 22.637956,129.27359 54.1851,185.31839 22.99773,157.5202 l -6.376865,37.41302 -10.4369226,1.52948 6.5593586,33.65712 -5.4209433,2.11693 z"
       id="path9637" />
    <path
       style="fill:#000055;stroke:#d5d5ff;stroke-width:2;stroke-linecap:round;stroke-linejoin:round;stroke-dasharray:none;stroke-dashoffset:0"
       d="m 9.6487145,200.07441 9.3184265,-1.80383 -4.089735,29.85374 z"
       id="path9639" />
    <path
       style="fill:#000055;stroke:#d5d5ff;stroke-width:2;stroke-linecap:round;stroke-linejoin:round;stroke-dasharray:none;stroke-dashoffset:0"
       d="m 91.52947,197.36822 77.22802,7.32496 -15.63105,8.22006 -14.08159,-8.98479 z"
       id="path9641" />
    <path
       style="fill:#000055;stroke:#d5d5ff;stroke-width:2;stroke-linecap:round;stroke-linejoin:round;stroke-dasharray:none;stroke-dashoffset:0"
       d="M 2.869666,135.0943 27.065806,118.22779 38.659995,93.026343 20.045877,103.4235 8.4123616,94.488827 Z"
       id="path9643" />
    <path
       style="fill:#000055;stroke:#d5d5ff;stroke-width:2;stroke-linecap:round;stroke-linejoin:round;stroke-dasharray:none;stroke-dashoffset:0"
       d="M 4.2215432,61.106068 42.147836,60.247011 58.00904,54.244679 49.127208,68.63971 29.163674,67.86791 17.047169,74.194696 Z"
       id="path9645" />
    <path
       style="fill:#000055;stroke:#d5d5ff;stroke-width:2;stroke-linecap:round;stroke-linejoin:round;stroke-dasharray:none;stroke-dashoffset:0"
       d="M 41.956116,86.413204 21.695167,98.19297 10.671225,86.472195 3.744392,95.975584 2.7338639,64.091258 17.131354,79.477462 30.456867,71.218416 49.825269,71.047588 Z"
       id="path9647" />
  </g>
</svg>
