<?xml version="1.0" encoding="UTF-8" standalone="no"?>
<!-- Created with Inkscape (http://www.inkscape.org/) -->

<svg
   width="210mm"
   height="297mm"
   viewBox="0 0 210 297"
   version="1.1"
   id="svg6131"
   inkscape:version="1.2.2 (b0a8486541, 2022-12-01)"
   sodipodi:docname="reto5y6y7_inkscape.svg"
   xmlns:inkscape="http://www.inkscape.org/namespaces/inkscape"
   xmlns:sodipodi="http://sodipodi.sourceforge.net/DTD/sodipodi-0.dtd"
   xmlns="http://www.w3.org/2000/svg"
   xmlns:svg="http://www.w3.org/2000/svg">
  <sodipodi:namedview
     id="namedview6133"
     pagecolor="#ffffff"
     bordercolor="#000000"
     borderopacity="0.25"
     inkscape:showpageshadow="2"
     inkscape:pageopacity="0.0"
     inkscape:pagecheckerboard="0"
     inkscape:deskcolor="#d1d1d1"
     inkscape:document-units="mm"
     showgrid="false"
     inkscape:zoom="1.1893044"
     inkscape:cx="466.65933"
     inkscape:cy="326.24112"
     inkscape:window-width="1870"
     inkscape:window-height="1011"
     inkscape:window-x="0"
     inkscape:window-y="0"
     inkscape:window-maximized="1"
     inkscape:current-layer="layer1" />
  <defs
     id="defs6128" />
  <g
     inkscape:label="Capa 1"
     inkscape:groupmode="layer"
     id="layer1">
    <ellipse
       style="fill:#ffff00;stroke:#000000;stroke-width:0.25;stroke-linecap:round;stroke-linejoin:round"
       id="path8119"
       cx="44.196548"
       cy="45.533062"
       rx="10.443864"
       ry="10.464142" />
    <ellipse
       style="fill:#ffff00;stroke:#000000;stroke-width:0.25;stroke-linecap:round;stroke-linejoin:round"
       id="ellipse8437"
       cx="44.196548"
       cy="45.533062"
       rx="10.443864"
       ry="10.464142" />
    <ellipse
       style="fill:#ffff00;stroke:#000000;stroke-width:0.25;stroke-linecap:round;stroke-linejoin:round"
       id="ellipse8439"
       cx="44.196548"
       cy="45.533062"
       rx="10.443864"
       ry="10.464142" />
    <ellipse
       style="fill:#ffff00;stroke:#000000;stroke-width:0.25;stroke-linecap:round;stroke-linejoin:round"
       id="ellipse8441"
       cx="44.196548"
       cy="45.533062"
       rx="10.443864"
       ry="10.464142" />
    <ellipse
       style="fill:#ffff00;stroke:#000000;stroke-width:0.25;stroke-linecap:round;stroke-linejoin:round"
       id="ellipse8443"
       cx="44.196548"
       cy="45.533062"
       rx="10.443864"
       ry="10.464142" />
    <ellipse
       style="fill:#ffff00;stroke:#000000;stroke-width:0.25;stroke-linecap:round;stroke-linejoin:round"
       id="ellipse8445"
       cx="44.196548"
       cy="45.533062"
       rx="10.443864"
       ry="10.464142" />
    <ellipse
       style="fill:#ffff00;stroke:#000000;stroke-width:0.25;stroke-linecap:round;stroke-linejoin:round"
       id="ellipse8447"
       cx="44.196548"
       cy="45.533062"
       rx="10.443864"
       ry="10.464142" />
    <ellipse
       style="fill:#ffff00;stroke:#000000;stroke-width:0.25;stroke-linecap:round;stroke-linejoin:round"
       id="ellipse8449"
       cx="44.196548"
       cy="45.533062"
       rx="10.443864"
       ry="10.464142" />
    <ellipse
       style="fill:#ffff00;stroke:#000000;stroke-width:0.25;stroke-linecap:round;stroke-linejoin:round"
       id="ellipse8451"
       cx="44.196548"
       cy="45.533062"
       rx="10.443864"
       ry="10.464142" />
    <ellipse
       style="fill:#ffff00;stroke:#000000;stroke-width:0.25;stroke-linecap:round;stroke-linejoin:round"
       id="ellipse8453"
       cx="44.196548"
       cy="45.533062"
       rx="10.443864"
       ry="10.464142" />
    <ellipse
       style="fill:#ffff00;stroke:#000000;stroke-width:0.25;stroke-linecap:round;stroke-linejoin:round"
       id="ellipse8455"
       cx="44.196548"
       cy="45.533062"
       rx="10.443864"
       ry="10.464142" />
    <ellipse
       style="fill:#ffff00;stroke:#000000;stroke-width:0.25;stroke-linecap:round;stroke-linejoin:round"
       id="ellipse8457"
       cx="44.196548"
       cy="45.533062"
       rx="10.443864"
       ry="10.464142" />
    <ellipse
       style="fill:#ffff00;stroke:#000000;stroke-width:0.25;stroke-linecap:round;stroke-linejoin:round"
       id="ellipse8459"
       cx="44.196548"
       cy="45.533062"
       rx="10.443864"
       ry="10.464142" />
    <ellipse
       style="fill:#ffff00;stroke:#000000;stroke-width:0.25;stroke-linecap:round;stroke-linejoin:round"
       id="ellipse8461"
       cx="44.196548"
       cy="45.533062"
       rx="10.443864"
       ry="10.464142" />
    <ellipse
       style="fill:#ffff00;stroke:#000000;stroke-width:0.25;stroke-linecap:round;stroke-linejoin:round"
       id="ellipse8463"
       cx="44.196548"
       cy="45.533062"
       rx="10.443864"
       ry="10.464142" />
    <ellipse
       style="fill:#ffff00;stroke:#000000;stroke-width:0.25;stroke-linecap:round;stroke-linejoin:round"
       id="ellipse8465"
       cx="44.196548"
       cy="45.533062"
       rx="10.443864"
       ry="10.464142" />
    <ellipse
       style="fill:#ffff00;stroke:#000000;stroke-width:0.25;stroke-linecap:round;stroke-linejoin:round"
       id="ellipse8467"
       cx="44.196548"
       cy="45.533062"
       rx="10.443864"
       ry="10.464142" />
    <ellipse
       style="fill:#ffff00;stroke:#000000;stroke-width:0.25;stroke-linecap:round;stroke-linejoin:round"
       id="ellipse8469"
       cx="44.196548"
       cy="45.533062"
       rx="10.443864"
       ry="10.464142" />
    <ellipse
       style="fill:#ffff00;stroke:#000000;stroke-width:0.25;stroke-linecap:round;stroke-linejoin:round"
       id="ellipse8471"
       cx="44.196548"
       cy="45.533062"
       rx="10.443864"
       ry="10.464142" />
    <ellipse
       style="fill:#ffff00;stroke:#000000;stroke-width:0.25;stroke-linecap:round;stroke-linejoin:round"
       id="ellipse8473"
       cx="44.196548"
       cy="45.533062"
       rx="10.443864"
       ry="10.464142" />
    <ellipse
       style="fill:#ffff00;stroke:#000000;stroke-width:0.25;stroke-linecap:round;stroke-linejoin:round"
       id="ellipse8475"
       cx="44.196548"
       cy="45.533062"
       rx="10.443864"
       ry="10.464142" />
    <ellipse
       style="fill:#ffff00;stroke:#000000;stroke-width:0.25;stroke-linecap:round;stroke-linejoin:round"
       id="ellipse8477"
       cx="44.196548"
       cy="45.533062"
       rx="10.443864"
       ry="10.464142" />
    <ellipse
       style="fill:#ffff00;stroke:#000000;stroke-width:0.25;stroke-linecap:round;stroke-linejoin:round"
       id="ellipse8479"
       cx="44.196548"
       cy="45.533062"
       rx="10.443864"
       ry="10.464142" />
    <ellipse
       style="fill:#ffff00;stroke:#000000;stroke-width:0.25;stroke-linecap:round;stroke-linejoin:round"
       id="ellipse8481"
       cx="44.196548"
       cy="45.533062"
       rx="10.443864"
       ry="10.464142" />
    <path
       style="fill:#ffffff;fill-opacity:0;stroke:#000000;stroke-width:0.25;stroke-linecap:round;stroke-linejoin:round"
       d="m 36.610057,38.470117 c 0,0 -8.724572,-12.884322 -3.905081,-15.544741 4.819491,-2.660419 11.745968,12.292861 11.745968,12.292861 0,0 6.121987,-13.978801 10.647259,-11.5905 4.525272,2.388301 -3.385222,14.574463 -3.385222,14.574463 0,0 13.155539,-5.958339 14.901987,-1.246185 1.746448,4.712154 -12.312528,8.910098 -12.312528,8.910098 0,0 12.788235,0.255556 12.069804,4.474713 -0.718431,4.219157 -12.804735,0.226747 -12.804735,0.226747 0,0 9.098921,6.368909 6.559677,9.589109 -2.539244,3.2202 -12.133709,-4.630793 -12.133709,-4.630793 0,0 3.050247,10.013705 -0.672867,10.801498 -3.723114,0.787793 -5.538394,-10.657708 -5.538394,-10.657708 0,0 -4.630478,9.592647 -8.009871,7.808934 -3.379393,-1.783713 2.023515,-11.565308 2.023515,-11.565308 0,0 -11.272642,4.986037 -12.716248,0.89531 -1.443606,-4.090727 10.898587,-7.588331 10.898587,-7.588331 0,0 -12.278525,-3.634721 -10.73759,-7.80709 1.540935,-4.172369 13.369448,1.056923 13.369448,1.056923 z"
       id="path8595"
       sodipodi:nodetypes="czczczczczczczczczc" />
    <path
       style="fill:#ffffff;fill-opacity:1;stroke:#000000;stroke-width:0.25;stroke-linecap:round;stroke-linejoin:round"
       d="m 40.227559,35.537773 c 0,0 2.009329,-16.233602 6.085903,-15.748138 4.076574,0.485464 1.648675,16.354026 1.648675,16.354026 0,0 16.108688,-12.009625 19.127217,-9.29907 3.018529,2.710555 -13.833391,14.277049 -13.833391,14.277049 0,0 18.01481,-0.695273 19.188051,3.127752 1.173241,3.823025 -18.246037,3.29059 -18.246037,3.29059 0,0 17.416043,6.720465 16.843772,10.769545 -0.572271,4.04908 -19.202799,-4.955859 -19.202799,-4.955859 0,0 9.413112,10.200955 6.621125,13.42168 -2.791987,3.220725 -13.373749,-10.708094 -13.373749,-10.708094 0,0 0.452199,16.103915 -5.582024,14.731158 -6.034224,-1.372758 -0.192336,-15.957679 -0.192336,-15.957679 0,0 -12.539197,11.46997 -15.787464,8.61883 -3.248267,-2.85114 10.817473,-13.951986 10.817473,-13.951986 0,0 -16.562115,-0.274097 -16.331287,-4.541077 0.230828,-4.266981 15.802827,-2.545216 15.802827,-2.545216 0,0 -14.264903,-12.114019 -11.478665,-15.542283 2.786238,-3.428264 17.892709,8.658772 17.892709,8.658772 z"
       id="path8539"
       sodipodi:nodetypes="czczczczczczczczczc" />
    <ellipse
       style="fill:#ffff00;stroke:#000000;stroke-width:0.25;stroke-linecap:round;stroke-linejoin:round"
       id="ellipse8483"
       cx="44.196548"
       cy="45.533062"
       rx="10.443864"
       ry="10.464142" />
    <path
       style="fill:#e6e6e6;fill-opacity:1;stroke:#000000;stroke-width:0.25;stroke-linecap:round;stroke-linejoin:round"
       d="m 122.60787,137.92648 c 0,0 -9.01032,-4.00685 -9.04037,5.9034 -0.03,9.91025 9.54179,7.06601 9.54179,7.06601 0,0 0.78146,4.28425 9.45638,4.13245 8.67492,-0.1518 7.5828,-4.23629 7.5828,-4.23629 0,0 3.76985,2.54934 9.10735,1.366 5.33749,-1.18333 7.26696,-5.22869 7.26696,-5.22869 0,0 7.39793,3.17299 7.47649,-5.54946 0.0786,-8.72244 -7.73089,-6.27331 -7.73089,-6.27331 0,0 -2.03522,-7.22669 -10.10652,-7.56191 -8.07129,-0.33522 -8.29069,9.68374 -8.29069,9.68374 0,0 -4.61628,-5.42558 -9.69848,-4.07653 -5.08221,1.34905 -5.56482,4.77459 -5.56482,4.77459 z"
       id="path9792"
       sodipodi:nodetypes="czczczczczczc" />
    <path
       style="fill:#ffccaa;fill-opacity:1;stroke:#000000;stroke-width:0.25;stroke-linecap:round;stroke-linejoin:round"
       d="m 32.444643,171.3349 14.297459,0.0956 5.633037,-25.40184 c 0,0 9.832103,-24.62498 4.847819,-28.07858 -4.984283,-3.4536 -10.20946,21.6772 -10.20946,21.6772 0,0 6.893403,-43.925592 2.085602,-44.030654 -4.807801,-0.105062 -7.62209,33.790734 -7.62209,33.790734 0,0 4.623454,-36.781173 -0.486065,-37.272912 -5.109519,-0.491739 -5.526367,37.207922 -5.526367,37.207922 0,0 1.736363,-34.790128 -4.254151,-34.163484 -5.990514,0.626643 -2.747272,35.309544 -2.747272,35.309544 0,0 -2.500549,-28.0359 -6.253163,-28.13992 -3.752614,-0.10402 1.477291,26.15859 3.435627,34.56502 1.958336,8.40643 6.799024,34.44138 6.799024,34.44138 z"
       id="path9848"
       sodipodi:nodetypes="ccczczczczczzcc" />
    <path
       sodipodi:type="star"
       style="fill:#d3bc5f;stroke:#000000;stroke-width:0.25;stroke-linecap:round;stroke-linejoin:round;stroke-dasharray:none"
       id="path4814"
       inkscape:flatsided="true"
       sodipodi:sides="6"
       sodipodi:cx="22.187988"
       sodipodi:cy="47.077274"
       sodipodi:r1="10.462922"
       sodipodi:r2="8.7457514"
       sodipodi:arg1="0.0012920658"
       sodipodi:arg2="0.52489084"
       inkscape:rounded="0"
       inkscape:randomized="0"
       d="m 32.650902,47.090793 -5.243165,9.054389 -10.462913,-0.01352 -5.219749,-9.067908 5.243164,-9.05439 10.462914,0.01352 z"
       transform="translate(71.725736,2.5119001)" />
    <path
       sodipodi:type="star"
       style="fill:#786721;stroke:#000000;stroke-width:0.25;stroke-linecap:round;stroke-linejoin:round;stroke-dasharray:none"
       id="path4868"
       inkscape:flatsided="true"
       sodipodi:sides="6"
       sodipodi:cx="22.187988"
       sodipodi:cy="47.077274"
       sodipodi:r1="10.462922"
       sodipodi:r2="8.7457514"
       sodipodi:arg1="0.0012920658"
       sodipodi:arg2="0.52489084"
       inkscape:rounded="0"
       inkscape:randomized="0"
       d="m 32.650902,47.090793 -5.243165,9.054389 -10.462913,-0.01352 -5.219749,-9.067908 5.243164,-9.05439 10.462914,0.01352 z"
       transform="translate(71.725736,2.5119001)" />
    <path
       sodipodi:type="star"
       style="fill:#d3bc5f;stroke:#000000;stroke-width:0.25;stroke-linecap:round;stroke-linejoin:round;stroke-dasharray:none"
       id="path4868-3"
       inkscape:flatsided="true"
       sodipodi:sides="6"
       sodipodi:cx="8.6164436"
       sodipodi:cy="56.115131"
       sodipodi:r1="10.462922"
       sodipodi:r2="8.7457514"
       sodipodi:arg1="0.0012920658"
       sodipodi:arg2="0.52489084"
       inkscape:rounded="0"
       inkscape:randomized="0"
       d="m 19.079357,56.12865 -5.243164,9.05439 -10.4629137,-0.01352 -5.219749,-9.067908 5.2431643,-9.05439 10.4629134,0.01352 z"
       transform="translate(101.13521,2.6274225)" />
    <path
       sodipodi:type="star"
       style="fill:#d3bc5f;stroke:#000000;stroke-width:0.25;stroke-linecap:round;stroke-linejoin:round;stroke-dasharray:none"
       id="path4868-6"
       inkscape:flatsided="true"
       sodipodi:sides="6"
       sodipodi:cx="21.298548"
       sodipodi:cy="35.015282"
       sodipodi:r1="10.462922"
       sodipodi:r2="8.7457514"
       sodipodi:arg1="0.0012920658"
       sodipodi:arg2="0.52489084"
       inkscape:rounded="0"
       inkscape:randomized="0"
       d="m 31.761461,35.0288 -5.243164,9.05439 -10.462914,-0.01352 -5.219749,-9.067908 5.243165,-9.054389 10.462913,0.01352 z"
       transform="translate(88.414201,5.4901457)" />
    <path
       sodipodi:type="star"
       style="fill:#a0892c;stroke:#000000;stroke-width:0.25;stroke-linecap:round;stroke-linejoin:round;stroke-dasharray:none"
       id="path4868-7"
       inkscape:flatsided="true"
       sodipodi:sides="6"
       sodipodi:cx="34.588245"
       sodipodi:cy="51.481899"
       sodipodi:r1="10.462922"
       sodipodi:r2="8.7457514"
       sodipodi:arg1="0.0012920658"
       sodipodi:arg2="0.52489084"
       inkscape:rounded="0"
       inkscape:randomized="0"
       d="m 45.051159,51.495418 -5.243165,9.054389 -10.462913,-0.01352 -5.219749,-9.067909 5.243164,-9.054389 10.462914,0.01352 z"
       transform="translate(90.972595,-1.8513306)" />
    <path
       sodipodi:type="star"
       style="fill:#d3bc5f;stroke:#000000;stroke-width:0.25;stroke-linecap:round;stroke-linejoin:round;stroke-dasharray:none"
       id="path4868-5"
       inkscape:flatsided="true"
       sodipodi:sides="6"
       sodipodi:cx="22.242519"
       sodipodi:cy="61.735458"
       sodipodi:r1="10.462922"
       sodipodi:r2="8.7457514"
       sodipodi:arg1="0.0012920658"
       sodipodi:arg2="0.52489084"
       inkscape:rounded="0"
       inkscape:randomized="0"
       d="m 32.705433,61.748977 -5.243165,9.05439 -10.462913,-0.01352 -5.219749,-9.067908 5.243164,-9.05439 10.462914,0.01352 z"
       transform="translate(103.37524,6.1019353)" />
    <path
       sodipodi:type="star"
       style="fill:#d3bc5f;stroke:#000000;stroke-width:0.25;stroke-linecap:round;stroke-linejoin:round;stroke-dasharray:none"
       id="path4868-35"
       inkscape:flatsided="true"
       sodipodi:sides="6"
       sodipodi:cx="22.064154"
       sodipodi:cy="19.160894"
       sodipodi:r1="10.462922"
       sodipodi:r2="8.7457514"
       sodipodi:arg1="0.0012920658"
       sodipodi:arg2="0.52489084"
       inkscape:rounded="0"
       inkscape:randomized="0"
       d="m 32.527067,19.174413 -5.243164,9.05439 -10.462914,-0.01352 -5.219749,-9.067908 5.243165,-9.05439 10.462913,0.01352 z"
       transform="translate(103.59771,12.386684)" />
    <path
       sodipodi:type="star"
       style="fill:#d3bc5f;stroke:#000000;stroke-width:0.25;stroke-linecap:round;stroke-linejoin:round;stroke-dasharray:none"
       id="path4868-62"
       inkscape:flatsided="true"
       sodipodi:sides="6"
       sodipodi:cx="27.815758"
       sodipodi:cy="38.013401"
       sodipodi:r1="10.462922"
       sodipodi:r2="8.7457514"
       sodipodi:arg1="0.0012920658"
       sodipodi:arg2="0.52489084"
       inkscape:rounded="0"
       inkscape:randomized="0"
       d="m 38.278671,38.02692 -5.243164,9.054389 -10.462914,-0.01352 -5.219749,-9.067908 5.243165,-9.054389 10.462913,0.01352 z"
       transform="translate(113.72005,2.7092834)" />
    <path
       sodipodi:type="star"
       style="fill:#d3bc5f;stroke:#000000;stroke-width:0.25;stroke-linecap:round;stroke-linejoin:round;stroke-dasharray:none"
       id="path4868-9"
       inkscape:flatsided="true"
       sodipodi:sides="6"
       sodipodi:cx="20.622885"
       sodipodi:cy="51.828636"
       sodipodi:r1="10.462922"
       sodipodi:r2="8.7457514"
       sodipodi:arg1="0.0012920658"
       sodipodi:arg2="0.52489084"
       inkscape:rounded="0"
       inkscape:randomized="0"
       d="m 31.085798,51.842155 -5.243164,9.054389 -10.462914,-0.01352 -5.219749,-9.067909 5.243165,-9.054389 10.462913,0.01352 z"
       transform="translate(120.72782,6.936194)" />
    <path
       sodipodi:type="star"
       style="fill:#786721;stroke:#000000;stroke-width:0.25;stroke-linecap:round;stroke-linejoin:round;stroke-dasharray:none"
       id="path4868-1"
       inkscape:flatsided="true"
       sodipodi:sides="6"
       sodipodi:cx="22.472591"
       sodipodi:cy="47.813766"
       sodipodi:r1="10.462922"
       sodipodi:r2="8.7457514"
       sodipodi:arg1="0.0012920658"
       sodipodi:arg2="0.52489084"
       inkscape:rounded="0"
       inkscape:randomized="0"
       d="m 32.935505,47.827285 -5.243165,9.05439 -10.462913,-0.01352 -5.219749,-9.067908 5.243164,-9.05439 10.462914,0.01352 z"
       transform="translate(134.8546,2.0418765)" />
    <path
       sodipodi:type="star"
       style="fill:#d3bc5f;stroke:#000000;stroke-width:0.25;stroke-linecap:round;stroke-linejoin:round;stroke-dasharray:none"
       id="path4868-2"
       inkscape:flatsided="true"
       sodipodi:sides="6"
       sodipodi:cx="21.451494"
       sodipodi:cy="45.553013"
       sodipodi:r1="10.462922"
       sodipodi:r2="8.7457514"
       sodipodi:arg1="0.0012920658"
       sodipodi:arg2="0.52489084"
       inkscape:rounded="0"
       inkscape:randomized="0"
       d="m 31.914408,45.566532 -5.243165,9.054389 -10.462913,-0.01352 -5.219749,-9.067908 5.243164,-9.054389 10.462914,0.01352 z"
       transform="translate(135.63324,22.397788)" />
    <path
       sodipodi:type="star"
       style="fill:#d3bc5f;stroke:#000000;stroke-width:0.25;stroke-linecap:round;stroke-linejoin:round;stroke-dasharray:none"
       id="path4868-70"
       inkscape:flatsided="true"
       sodipodi:sides="6"
       sodipodi:cx="22.041992"
       sodipodi:cy="45.954502"
       sodipodi:r1="10.462922"
       sodipodi:r2="8.7457514"
       sodipodi:arg1="0.0012920658"
       sodipodi:arg2="0.52489084"
       inkscape:rounded="0"
       inkscape:randomized="0"
       d="m 32.504906,45.968021 -5.243165,9.054389 -10.462913,-0.01352 -5.219749,-9.067908 5.243164,-9.054389 10.462913,0.01352 z"
       transform="translate(119.39301,30.851609)" />
    <path
       sodipodi:type="star"
       style="fill:#d3bc5f;stroke:#000000;stroke-width:0.25;stroke-linecap:round;stroke-linejoin:round;stroke-dasharray:none"
       id="path4868-93"
       inkscape:flatsided="true"
       sodipodi:sides="6"
       sodipodi:cx="1.0025978"
       sodipodi:cy="4.9098439"
       sodipodi:r1="10.462922"
       sodipodi:r2="8.7457514"
       sodipodi:arg1="0.0012920658"
       sodipodi:arg2="0.52489084"
       inkscape:rounded="0"
       inkscape:randomized="0"
       d="M 11.465511,4.9233627 6.2223469,13.977752 -4.2405665,13.964233 -9.4603156,4.8963251 -4.2171513,-4.1580642 6.2457621,-4.1445455 Z"
       transform="translate(156.65656,27.069636)" />
    <path
       sodipodi:type="star"
       style="fill:#d3bc5f;stroke:#000000;stroke-width:0.25;stroke-linecap:round;stroke-linejoin:round;stroke-dasharray:none"
       id="path4868-60"
       inkscape:flatsided="true"
       sodipodi:sides="6"
       sodipodi:cx="15.025965"
       sodipodi:cy="3.3542993"
       sodipodi:r1="10.462922"
       sodipodi:r2="8.7457514"
       sodipodi:arg1="0.0012920658"
       sodipodi:arg2="0.52489084"
       inkscape:rounded="0"
       inkscape:randomized="0"
       d="M 25.488878,3.3678181 20.245714,12.422207 9.7828004,12.408689 4.5630514,3.3407805 9.8062157,-5.7136089 20.269129,-5.7000901 Z"
       transform="translate(126.73448,19.505691)" />
    <path
       sodipodi:type="star"
       style="fill:#d3bc5f;stroke:#000000;stroke-width:0.25;stroke-linecap:round;stroke-linejoin:round;stroke-dasharray:none"
       id="path4868-2-6"
       inkscape:flatsided="true"
       sodipodi:sides="6"
       sodipodi:cx="23.18998"
       sodipodi:cy="42.702839"
       sodipodi:r1="10.462922"
       sodipodi:r2="8.7457514"
       sodipodi:arg1="0.0012920658"
       sodipodi:arg2="0.52489084"
       inkscape:rounded="0"
       inkscape:randomized="0"
       d="m 33.652893,42.716358 -5.243164,9.054389 -10.462914,-0.01352 -5.219749,-9.067908 5.243164,-9.054389 10.462914,0.01352 z"
       transform="translate(150.16281,-1.6618829)" />
    <path
       sodipodi:type="star"
       style="fill:#d3bc5f;stroke:#000000;stroke-width:0.25;stroke-linecap:round;stroke-linejoin:round;stroke-dasharray:none"
       id="path4868-2-2"
       inkscape:flatsided="true"
       sodipodi:sides="6"
       sodipodi:cx="21.530149"
       sodipodi:cy="45.145912"
       sodipodi:r1="10.462922"
       sodipodi:r2="8.7457514"
       sodipodi:arg1="0.0012920658"
       sodipodi:arg2="0.52489084"
       inkscape:rounded="0"
       inkscape:randomized="0"
       d="m 31.993063,45.159431 -5.243164,9.054389 -10.462914,-0.01352 -5.219749,-9.067909 5.243164,-9.054389 10.462914,0.01352 z"
       transform="translate(151.58144,13.983517)" />
    <path
       sodipodi:type="star"
       style="fill:#a0892c;stroke:#000000;stroke-width:0.25;stroke-linecap:round;stroke-linejoin:round;stroke-dasharray:none"
       id="path4868-2-61"
       inkscape:flatsided="true"
       sodipodi:sides="6"
       sodipodi:cx="20.417307"
       sodipodi:cy="46.295315"
       sodipodi:r1="10.462922"
       sodipodi:r2="8.7457514"
       sodipodi:arg1="0.0012920658"
       sodipodi:arg2="0.52489084"
       inkscape:rounded="0"
       inkscape:randomized="0"
       d="m 30.88022,46.308834 -5.243164,9.054389 -10.462913,-0.01352 -5.2197495,-9.067908 5.2431645,-9.054389 10.462913,0.01352 z"
       transform="translate(168.64951,3.9943751)" />
  </g>
</svg>
